<svg xmlns="http://www.w3.org/2000/svg" xmlns:xlink="http://www.w3.org/1999/xlink" width="500" zoomAndPan="magnify" viewBox="0 0 375 374.999991" height="500" preserveAspectRatio="xMidYMid meet" version="1.0"><defs><clipPath id="8b92d05625"><path d="M 26.484375 26.484375 L 348.515625 26.484375 L 348.515625 348.515625 L 26.484375 348.515625 Z M 26.484375 26.484375 " clip-rule="nonzero"/></clipPath><clipPath id="44acff8c75"><path d="M 187.5 26.484375 C 98.574219 26.484375 26.484375 98.574219 26.484375 187.5 C 26.484375 276.425781 98.574219 348.515625 187.5 348.515625 C 276.425781 348.515625 348.515625 276.425781 348.515625 187.5 C 348.515625 98.574219 276.425781 26.484375 187.5 26.484375 Z M 187.5 26.484375 " clip-rule="nonzero"/></clipPath></defs><g clip-path="url(#8b92d05625)"><g clip-path="url(#44acff8c75)"><path fill="#1046a9" d="M 26.484375 26.484375 L 348.515625 26.484375 L 348.515625 348.515625 L 26.484375 348.515625 Z M 26.484375 26.484375 " fill-opacity="1" fill-rule="nonzero"/></g></g><path fill="#ffffff" d="M 205.9375 298.667969 C 209.578125 298.667969 213.675781 299.121094 217.316406 298.667969 C 227.789062 297.300781 238.714844 295.480469 249.183594 293.660156 C 257.378906 292.292969 258.742188 290.019531 257.378906 281.824219 C 256.921875 280.003906 257.832031 277.726562 259.199219 276.359375 C 268.757812 268.167969 278.316406 260.429688 288.789062 253.144531 C 292.429688 250.414062 296.980469 249.046875 301.535156 248.59375 C 306.085938 247.683594 308.363281 250.867188 306.542969 255.421875 C 306.085938 256.332031 305.632812 257.242188 305.175781 258.152344 C 283.324219 287.742188 256.46875 310.957031 220.503906 321.429688 C 168.609375 335.996094 123.996094 321.882812 87.578125 283.644531 C 12.921875 205.347656 51.617188 77.429688 156.773438 52.847656 C 232.796875 34.636719 311.09375 87.441406 322.929688 164.375 C 326.117188 183.949219 325.207031 203.523438 320.199219 222.644531 C 319.742188 224.464844 319.289062 226.742188 317.921875 228.5625 C 316.101562 232.660156 312.460938 234.023438 308.363281 233.113281 C 303.8125 232.203125 301.078125 229.019531 301.535156 224.464844 C 302.445312 217.636719 304.265625 210.808594 305.175781 203.980469 C 313.824219 137.0625 269.214844 78.339844 202.296875 68.324219 C 150.398438 60.585938 95.773438 91.085938 76.652344 140.25 C 62.996094 174.390625 70.28125 214.449219 94.863281 238.578125 C 100.78125 244.496094 106.699219 247.683594 115.804688 246.769531 C 138.5625 244.496094 159.050781 250.414062 175.894531 266.800781 C 183.175781 273.628906 192.28125 274.539062 201.839844 273.628906 C 214.585938 272.265625 227.332031 270.441406 239.625 274.085938 C 243.722656 275.449219 248.273438 277.726562 251.460938 280.457031 C 256.011719 284.554688 254.648438 289.105469 248.730469 290.472656 C 235.527344 292.75 222.324219 294.570312 209.578125 296.847656 C 208.214844 296.847656 206.847656 297.300781 205.480469 297.300781 C 205.9375 297.757812 205.9375 298.210938 205.9375 298.667969 Z M 205.9375 298.667969 " fill-opacity="1" fill-rule="nonzero"/><path fill="#ffffff" d="M 173.617188 110.660156 C 173.160156 113.390625 172.707031 115.210938 172.707031 117.03125 C 177.257812 119.308594 181.355469 121.128906 186.363281 123.40625 C 187.273438 117.941406 190.003906 118.851562 194.101562 119.765625 C 197.742188 121.128906 201.386719 120.675781 205.480469 121.128906 C 209.578125 121.585938 214.132812 120.675781 212.3125 127.503906 C 211.855469 129.324219 213.675781 132.054688 215.042969 133.875 C 220.503906 142.070312 225.511719 149.808594 231.429688 157.546875 C 232.339844 158.457031 234.617188 158.914062 235.980469 158.457031 C 238.714844 158.003906 241.445312 157.09375 245.085938 156.183594 C 244.632812 162.554688 242.8125 168.019531 238.714844 172.113281 C 235.980469 174.847656 233.25 177.121094 230.519531 179.855469 C 225.511719 184.859375 221.871094 189.867188 225.511719 197.605469 C 228.242188 203.980469 225.511719 208.53125 219.59375 212.175781 C 216.40625 213.996094 213.675781 215.816406 215.496094 220.367188 C 215.953125 221.277344 215.042969 223.554688 214.132812 224.464844 C 212.3125 227.195312 210.035156 229.472656 208.214844 232.203125 C 204.117188 239.488281 197.289062 242.675781 189.09375 242.675781 C 187.730469 242.675781 185.453125 241.765625 184.996094 240.855469 C 180.898438 231.75 177.257812 222.1875 173.617188 212.628906 C 172.707031 210.355469 173.160156 207.167969 174.070312 205.347656 C 178.167969 198.972656 175.4375 193.511719 172.25 188.046875 C 169.519531 183.949219 166.789062 180.308594 168.152344 174.847656 C 169.0625 171.660156 166.332031 171.203125 164.058594 169.382812 C 156.316406 163.921875 149.035156 169.382812 141.75 169.839844 C 135.378906 170.292969 130.824219 168.019531 127.183594 163.464844 C 116.714844 150.265625 119.898438 134.785156 134.011719 125.226562 C 135.832031 124.316406 137.199219 122.496094 138.5625 120.675781 C 141.75 116.121094 144.480469 111.570312 151.765625 112.480469 C 155.40625 112.9375 159.050781 111.113281 162.691406 110.660156 C 165.421875 111.113281 169.0625 110.660156 173.617188 110.660156 Z M 173.617188 110.660156 " fill-opacity="1" fill-rule="nonzero"/><path fill="#ffffff" d="M 243.265625 205.347656 C 241.898438 208.988281 240.535156 213.085938 238.714844 216.726562 C 237.804688 219.003906 236.894531 222.1875 235.527344 224.011719 C 234.160156 225.375 231.886719 226.285156 230.0625 227.195312 C 229.609375 225.375 228.242188 223.101562 228.699219 221.277344 C 229.152344 217.636719 229.609375 213.539062 231.886719 210.808594 C 234.160156 208.078125 238.257812 206.710938 241.445312 204.890625 C 242.355469 204.890625 242.8125 205.347656 243.265625 205.347656 Z M 243.265625 205.347656 " fill-opacity="1" fill-rule="nonzero"/></svg>